<?xml version="1.0" encoding="iso-8859-1"?>
<!-- Generator: Adobe Illustrator 19.0.0, SVG Export Plug-In . SVG Version: 6.00 Build 0)  -->
<svg version="1.1" id="Capa_1" xmlns="http://www.w3.org/2000/svg" xmlns:xlink="http://www.w3.org/1999/xlink" x="0px" y="0px"
	 viewBox="0 0 512 512" style="enable-background:new 0 0 512 512;" xml:space="preserve">
<g>
	<g>
		<path d="M454.154,0H139.077c-8.157,0-14.769,6.613-14.769,14.769v64c0,8.157,6.613,14.769,14.769,14.769h81.96l-36.103,324.923
			H57.846c-8.157,0-14.769,6.613-14.769,14.769v64c0,8.157,6.613,14.769,14.769,14.769h315.077c8.157,0,14.769-6.613,14.769-14.769
			v-64c0-8.157-6.613-14.769-14.769-14.769h-79.499l36.103-324.923h124.627c8.157,0,14.769-6.613,14.769-14.769v-64
			C468.923,6.613,462.31,0,454.154,0z"/>
	</g>
</g>
<g>
</g>
<g>
</g>
<g>
</g>
<g>
</g>
<g>
</g>
<g>
</g>
<g>
</g>
<g>
</g>
<g>
</g>
<g>
</g>
<g>
</g>
<g>
</g>
<g>
</g>
<g>
</g>
<g>
</g>
</svg>
